<svg width="860" height="200" xmlns="http://www.w3.org/2000/svg">
  <style>
    .rect { animation: wave 0.8s ease-in-out forwards; opacity: 0; }
    @keyframes wave { 0% { opacity: 0; transform: scale(0.3); } 100% { opacity: 1; transform: scale(1); } }
  </style>
  <rect width="100%" height="100%" fill="#0d1117" rx="6" stroke="#30363d" />
  <g transform="translate(20, 20)">
<rect x="0" y="0" width="11" height="11" fill="#161b22" rx="2" class="rect" style="animation-delay: 0.0s" />
<rect x="0" y="15" width="11" height="11" fill="#161b22" rx="2" class="rect" style="animation-delay: 0.03s" />
<rect x="0" y="30" width="11" height="11" fill="#161b22" rx="2" class="rect" style="animation-delay: 0.06s" />
<rect x="0" y="45" width="11" height="11" fill="#161b22" rx="2" class="rect" style="animation-delay: 0.09s" />
<rect x="0" y="60" width="11" height="11" fill="#161b22" rx="2" class="rect" style="animation-delay: 0.12s" />
<rect x="0" y="75" width="11" height="11" fill="#161b22" rx="2" class="rect" style="animation-delay: 0.15s" />
<rect x="0" y="90" width="11" height="11" fill="#161b22" rx="2" class="rect" style="animation-delay: 0.18s" />
<rect x="15" y="0" width="11" height="11" fill="#161b22" rx="2" class="rect" style="animation-delay: 0.03s" />
<rect x="15" y="15" width="11" height="11" fill="#161b22" rx="2" class="rect" style="animation-delay: 0.06s" />
<rect x="15" y="30" width="11" height="11" fill="#161b22" rx="2" class="rect" style="animation-delay: 0.09s" />
<rect x="15" y="45" width="11" height="11" fill="#161b22" rx="2" class="rect" style="animation-delay: 0.12s" />
<rect x="15" y="60" width="11" height="11" fill="#161b22" rx="2" class="rect" style="animation-delay: 0.15s" />
<rect x="15" y="75" width="11" height="11" fill="#161b22" rx="2" class="rect" style="animation-delay: 0.18s" />
<rect x="15" y="90" width="11" height="11" fill="#161b22" rx="2" class="rect" style="animation-delay: 0.21s" />
<rect x="30" y="0" width="11" height="11" fill="#161b22" rx="2" class="rect" style="animation-delay: 0.06s" />
<rect x="30" y="15" width="11" height="11" fill="#161b22" rx="2" class="rect" style="animation-delay: 0.09s" />
<rect x="30" y="30" width="11" height="11" fill="#161b22" rx="2" class="rect" style="animation-delay: 0.12s" />
<rect x="30" y="45" width="11" height="11" fill="#161b22" rx="2" class="rect" style="animation-delay: 0.15s" />
<rect x="30" y="60" width="11" height="11" fill="#161b22" rx="2" class="rect" style="animation-delay: 0.18s" />
<rect x="30" y="75" width="11" height="11" fill="#161b22" rx="2" class="rect" style="animation-delay: 0.21s" />
<rect x="30" y="90" width="11" height="11" fill="#161b22" rx="2" class="rect" style="animation-delay: 0.24s" />
<rect x="45" y="0" width="11" height="11" fill="#161b22" rx="2" class="rect" style="animation-delay: 0.09s" />
<rect x="45" y="15" width="11" height="11" fill="#161b22" rx="2" class="rect" style="animation-delay: 0.12s" />
<rect x="45" y="30" width="11" height="11" fill="#161b22" rx="2" class="rect" style="animation-delay: 0.15s" />
<rect x="45" y="45" width="11" height="11" fill="#161b22" rx="2" class="rect" style="animation-delay: 0.18s" />
<rect x="45" y="60" width="11" height="11" fill="#161b22" rx="2" class="rect" style="animation-delay: 0.21s" />
<rect x="45" y="75" width="11" height="11" fill="#161b22" rx="2" class="rect" style="animation-delay: 0.24s" />
<rect x="45" y="90" width="11" height="11" fill="#161b22" rx="2" class="rect" style="animation-delay: 0.27s" />
<rect x="60" y="0" width="11" height="11" fill="#161b22" rx="2" class="rect" style="animation-delay: 0.12s" />
<rect x="60" y="15" width="11" height="11" fill="#161b22" rx="2" class="rect" style="animation-delay: 0.15s" />
<rect x="60" y="30" width="11" height="11" fill="#161b22" rx="2" class="rect" style="animation-delay: 0.18s" />
<rect x="60" y="45" width="11" height="11" fill="#161b22" rx="2" class="rect" style="animation-delay: 0.21s" />
<rect x="60" y="60" width="11" height="11" fill="#161b22" rx="2" class="rect" style="animation-delay: 0.24s" />
<rect x="60" y="75" width="11" height="11" fill="#161b22" rx="2" class="rect" style="animation-delay: 0.27s" />
<rect x="60" y="90" width="11" height="11" fill="#161b22" rx="2" class="rect" style="animation-delay: 0.3s" />
<rect x="75" y="0" width="11" height="11" fill="#161b22" rx="2" class="rect" style="animation-delay: 0.15s" />
<rect x="75" y="15" width="11" height="11" fill="#161b22" rx="2" class="rect" style="animation-delay: 0.18s" />
<rect x="75" y="30" width="11" height="11" fill="#161b22" rx="2" class="rect" style="animation-delay: 0.21s" />
<rect x="75" y="45" width="11" height="11" fill="#161b22" rx="2" class="rect" style="animation-delay: 0.24s" />
<rect x="75" y="60" width="11" height="11" fill="#161b22" rx="2" class="rect" style="animation-delay: 0.27s" />
<rect x="75" y="75" width="11" height="11" fill="#161b22" rx="2" class="rect" style="animation-delay: 0.3s" />
<rect x="75" y="90" width="11" height="11" fill="#161b22" rx="2" class="rect" style="animation-delay: 0.32999999999999996s" />
<rect x="90" y="0" width="11" height="11" fill="#161b22" rx="2" class="rect" style="animation-delay: 0.18s" />
<rect x="90" y="15" width="11" height="11" fill="#161b22" rx="2" class="rect" style="animation-delay: 0.21s" />
<rect x="90" y="30" width="11" height="11" fill="#161b22" rx="2" class="rect" style="animation-delay: 0.24s" />
<rect x="90" y="45" width="11" height="11" fill="#161b22" rx="2" class="rect" style="animation-delay: 0.27s" />
<rect x="90" y="60" width="11" height="11" fill="#161b22" rx="2" class="rect" style="animation-delay: 0.3s" />
<rect x="90" y="75" width="11" height="11" fill="#161b22" rx="2" class="rect" style="animation-delay: 0.32999999999999996s" />
<rect x="90" y="90" width="11" height="11" fill="#161b22" rx="2" class="rect" style="animation-delay: 0.36s" />
<rect x="105" y="0" width="11" height="11" fill="#161b22" rx="2" class="rect" style="animation-delay: 0.21s" />
<rect x="105" y="15" width="11" height="11" fill="#0e4429" rx="2" class="rect" style="animation-delay: 0.24s" />
<rect x="105" y="30" width="11" height="11" fill="#0e4429" rx="2" class="rect" style="animation-delay: 0.27s" />
<rect x="105" y="45" width="11" height="11" fill="#0e4429" rx="2" class="rect" style="animation-delay: 0.3s" />
<rect x="105" y="60" width="11" height="11" fill="#161b22" rx="2" class="rect" style="animation-delay: 0.32999999999999996s" />
<rect x="105" y="75" width="11" height="11" fill="#161b22" rx="2" class="rect" style="animation-delay: 0.36s" />
<rect x="105" y="90" width="11" height="11" fill="#161b22" rx="2" class="rect" style="animation-delay: 0.39s" />
<rect x="120" y="0" width="11" height="11" fill="#161b22" rx="2" class="rect" style="animation-delay: 0.24s" />
<rect x="120" y="15" width="11" height="11" fill="#161b22" rx="2" class="rect" style="animation-delay: 0.27s" />
<rect x="120" y="30" width="11" height="11" fill="#161b22" rx="2" class="rect" style="animation-delay: 0.3s" />
<rect x="120" y="45" width="11" height="11" fill="#161b22" rx="2" class="rect" style="animation-delay: 0.32999999999999996s" />
<rect x="120" y="60" width="11" height="11" fill="#161b22" rx="2" class="rect" style="animation-delay: 0.36s" />
<rect x="120" y="75" width="11" height="11" fill="#161b22" rx="2" class="rect" style="animation-delay: 0.39s" />
<rect x="120" y="90" width="11" height="11" fill="#161b22" rx="2" class="rect" style="animation-delay: 0.42s" />
<rect x="135" y="0" width="11" height="11" fill="#161b22" rx="2" class="rect" style="animation-delay: 0.27s" />
<rect x="135" y="15" width="11" height="11" fill="#161b22" rx="2" class="rect" style="animation-delay: 0.3s" />
<rect x="135" y="30" width="11" height="11" fill="#161b22" rx="2" class="rect" style="animation-delay: 0.32999999999999996s" />
<rect x="135" y="45" width="11" height="11" fill="#161b22" rx="2" class="rect" style="animation-delay: 0.36s" />
<rect x="135" y="60" width="11" height="11" fill="#161b22" rx="2" class="rect" style="animation-delay: 0.39s" />
<rect x="135" y="75" width="11" height="11" fill="#161b22" rx="2" class="rect" style="animation-delay: 0.42s" />
<rect x="135" y="90" width="11" height="11" fill="#161b22" rx="2" class="rect" style="animation-delay: 0.44999999999999996s" />
<rect x="150" y="0" width="11" height="11" fill="#161b22" rx="2" class="rect" style="animation-delay: 0.3s" />
<rect x="150" y="15" width="11" height="11" fill="#161b22" rx="2" class="rect" style="animation-delay: 0.32999999999999996s" />
<rect x="150" y="30" width="11" height="11" fill="#161b22" rx="2" class="rect" style="animation-delay: 0.36s" />
<rect x="150" y="45" width="11" height="11" fill="#161b22" rx="2" class="rect" style="animation-delay: 0.39s" />
<rect x="150" y="60" width="11" height="11" fill="#161b22" rx="2" class="rect" style="animation-delay: 0.42s" />
<rect x="150" y="75" width="11" height="11" fill="#161b22" rx="2" class="rect" style="animation-delay: 0.44999999999999996s" />
<rect x="150" y="90" width="11" height="11" fill="#161b22" rx="2" class="rect" style="animation-delay: 0.48s" />
<rect x="165" y="0" width="11" height="11" fill="#161b22" rx="2" class="rect" style="animation-delay: 0.32999999999999996s" />
<rect x="165" y="15" width="11" height="11" fill="#161b22" rx="2" class="rect" style="animation-delay: 0.36s" />
<rect x="165" y="30" width="11" height="11" fill="#161b22" rx="2" class="rect" style="animation-delay: 0.39s" />
<rect x="165" y="45" width="11" height="11" fill="#161b22" rx="2" class="rect" style="animation-delay: 0.42s" />
<rect x="165" y="60" width="11" height="11" fill="#161b22" rx="2" class="rect" style="animation-delay: 0.44999999999999996s" />
<rect x="165" y="75" width="11" height="11" fill="#161b22" rx="2" class="rect" style="animation-delay: 0.48s" />
<rect x="165" y="90" width="11" height="11" fill="#161b22" rx="2" class="rect" style="animation-delay: 0.51s" />
<rect x="180" y="0" width="11" height="11" fill="#161b22" rx="2" class="rect" style="animation-delay: 0.36s" />
<rect x="180" y="15" width="11" height="11" fill="#161b22" rx="2" class="rect" style="animation-delay: 0.39s" />
<rect x="180" y="30" width="11" height="11" fill="#161b22" rx="2" class="rect" style="animation-delay: 0.42s" />
<rect x="180" y="45" width="11" height="11" fill="#161b22" rx="2" class="rect" style="animation-delay: 0.44999999999999996s" />
<rect x="180" y="60" width="11" height="11" fill="#161b22" rx="2" class="rect" style="animation-delay: 0.48s" />
<rect x="180" y="75" width="11" height="11" fill="#006d32" rx="2" class="rect" style="animation-delay: 0.51s" />
<rect x="180" y="90" width="11" height="11" fill="#006d32" rx="2" class="rect" style="animation-delay: 0.54s" />
<rect x="195" y="0" width="11" height="11" fill="#161b22" rx="2" class="rect" style="animation-delay: 0.39s" />
<rect x="195" y="15" width="11" height="11" fill="#006d32" rx="2" class="rect" style="animation-delay: 0.42s" />
<rect x="195" y="30" width="11" height="11" fill="#0e4429" rx="2" class="rect" style="animation-delay: 0.44999999999999996s" />
<rect x="195" y="45" width="11" height="11" fill="#161b22" rx="2" class="rect" style="animation-delay: 0.48s" />
<rect x="195" y="60" width="11" height="11" fill="#161b22" rx="2" class="rect" style="animation-delay: 0.51s" />
<rect x="195" y="75" width="11" height="11" fill="#161b22" rx="2" class="rect" style="animation-delay: 0.54s" />
<rect x="195" y="90" width="11" height="11" fill="#161b22" rx="2" class="rect" style="animation-delay: 0.57s" />
<rect x="210" y="0" width="11" height="11" fill="#0e4429" rx="2" class="rect" style="animation-delay: 0.42s" />
<rect x="210" y="15" width="11" height="11" fill="#161b22" rx="2" class="rect" style="animation-delay: 0.44999999999999996s" />
<rect x="210" y="30" width="11" height="11" fill="#006d32" rx="2" class="rect" style="animation-delay: 0.48s" />
<rect x="210" y="45" width="11" height="11" fill="#161b22" rx="2" class="rect" style="animation-delay: 0.51s" />
<rect x="210" y="60" width="11" height="11" fill="#39d353" rx="2" class="rect" style="animation-delay: 0.54s" />
<rect x="210" y="75" width="11" height="11" fill="#26a641" rx="2" class="rect" style="animation-delay: 0.57s" />
<rect x="210" y="90" width="11" height="11" fill="#006d32" rx="2" class="rect" style="animation-delay: 0.6s" />
<rect x="225" y="0" width="11" height="11" fill="#006d32" rx="2" class="rect" style="animation-delay: 0.44999999999999996s" />
<rect x="225" y="15" width="11" height="11" fill="#161b22" rx="2" class="rect" style="animation-delay: 0.48s" />
<rect x="225" y="30" width="11" height="11" fill="#161b22" rx="2" class="rect" style="animation-delay: 0.51s" />
<rect x="225" y="45" width="11" height="11" fill="#161b22" rx="2" class="rect" style="animation-delay: 0.54s" />
<rect x="225" y="60" width="11" height="11" fill="#161b22" rx="2" class="rect" style="animation-delay: 0.57s" />
<rect x="225" y="75" width="11" height="11" fill="#161b22" rx="2" class="rect" style="animation-delay: 0.6s" />
<rect x="225" y="90" width="11" height="11" fill="#161b22" rx="2" class="rect" style="animation-delay: 0.63s" />
<rect x="240" y="0" width="11" height="11" fill="#161b22" rx="2" class="rect" style="animation-delay: 0.48s" />
<rect x="240" y="15" width="11" height="11" fill="#161b22" rx="2" class="rect" style="animation-delay: 0.51s" />
<rect x="240" y="30" width="11" height="11" fill="#161b22" rx="2" class="rect" style="animation-delay: 0.54s" />
<rect x="240" y="45" width="11" height="11" fill="#161b22" rx="2" class="rect" style="animation-delay: 0.57s" />
<rect x="240" y="60" width="11" height="11" fill="#161b22" rx="2" class="rect" style="animation-delay: 0.6s" />
<rect x="240" y="75" width="11" height="11" fill="#161b22" rx="2" class="rect" style="animation-delay: 0.63s" />
<rect x="240" y="90" width="11" height="11" fill="#161b22" rx="2" class="rect" style="animation-delay: 0.6599999999999999s" />
<rect x="255" y="0" width="11" height="11" fill="#161b22" rx="2" class="rect" style="animation-delay: 0.51s" />
<rect x="255" y="15" width="11" height="11" fill="#161b22" rx="2" class="rect" style="animation-delay: 0.54s" />
<rect x="255" y="30" width="11" height="11" fill="#161b22" rx="2" class="rect" style="animation-delay: 0.57s" />
<rect x="255" y="45" width="11" height="11" fill="#161b22" rx="2" class="rect" style="animation-delay: 0.6s" />
<rect x="255" y="60" width="11" height="11" fill="#161b22" rx="2" class="rect" style="animation-delay: 0.63s" />
<rect x="255" y="75" width="11" height="11" fill="#161b22" rx="2" class="rect" style="animation-delay: 0.6599999999999999s" />
<rect x="255" y="90" width="11" height="11" fill="#161b22" rx="2" class="rect" style="animation-delay: 0.69s" />
<rect x="270" y="0" width="11" height="11" fill="#161b22" rx="2" class="rect" style="animation-delay: 0.54s" />
<rect x="270" y="15" width="11" height="11" fill="#161b22" rx="2" class="rect" style="animation-delay: 0.57s" />
<rect x="270" y="30" width="11" height="11" fill="#161b22" rx="2" class="rect" style="animation-delay: 0.6s" />
<rect x="270" y="45" width="11" height="11" fill="#161b22" rx="2" class="rect" style="animation-delay: 0.63s" />
<rect x="270" y="60" width="11" height="11" fill="#161b22" rx="2" class="rect" style="animation-delay: 0.6599999999999999s" />
<rect x="270" y="75" width="11" height="11" fill="#161b22" rx="2" class="rect" style="animation-delay: 0.69s" />
<rect x="270" y="90" width="11" height="11" fill="#161b22" rx="2" class="rect" style="animation-delay: 0.72s" />
<rect x="285" y="0" width="11" height="11" fill="#161b22" rx="2" class="rect" style="animation-delay: 0.57s" />
<rect x="285" y="15" width="11" height="11" fill="#161b22" rx="2" class="rect" style="animation-delay: 0.6s" />
<rect x="285" y="30" width="11" height="11" fill="#161b22" rx="2" class="rect" style="animation-delay: 0.63s" />
<rect x="285" y="45" width="11" height="11" fill="#161b22" rx="2" class="rect" style="animation-delay: 0.6599999999999999s" />
<rect x="285" y="60" width="11" height="11" fill="#161b22" rx="2" class="rect" style="animation-delay: 0.69s" />
<rect x="285" y="75" width="11" height="11" fill="#161b22" rx="2" class="rect" style="animation-delay: 0.72s" />
<rect x="285" y="90" width="11" height="11" fill="#161b22" rx="2" class="rect" style="animation-delay: 0.75s" />
<rect x="300" y="0" width="11" height="11" fill="#161b22" rx="2" class="rect" style="animation-delay: 0.6s" />
<rect x="300" y="15" width="11" height="11" fill="#161b22" rx="2" class="rect" style="animation-delay: 0.63s" />
<rect x="300" y="30" width="11" height="11" fill="#39d353" rx="2" class="rect" style="animation-delay: 0.6599999999999999s" />
<rect x="300" y="45" width="11" height="11" fill="#161b22" rx="2" class="rect" style="animation-delay: 0.69s" />
<rect x="300" y="60" width="11" height="11" fill="#161b22" rx="2" class="rect" style="animation-delay: 0.72s" />
<rect x="300" y="75" width="11" height="11" fill="#0e4429" rx="2" class="rect" style="animation-delay: 0.75s" />
<rect x="300" y="90" width="11" height="11" fill="#161b22" rx="2" class="rect" style="animation-delay: 0.78s" />
<rect x="315" y="0" width="11" height="11" fill="#161b22" rx="2" class="rect" style="animation-delay: 0.63s" />
<rect x="315" y="15" width="11" height="11" fill="#26a641" rx="2" class="rect" style="animation-delay: 0.6599999999999999s" />
<rect x="315" y="30" width="11" height="11" fill="#161b22" rx="2" class="rect" style="animation-delay: 0.69s" />
<rect x="315" y="45" width="11" height="11" fill="#161b22" rx="2" class="rect" style="animation-delay: 0.72s" />
<rect x="315" y="60" width="11" height="11" fill="#161b22" rx="2" class="rect" style="animation-delay: 0.75s" />
<rect x="315" y="75" width="11" height="11" fill="#161b22" rx="2" class="rect" style="animation-delay: 0.78s" />
<rect x="315" y="90" width="11" height="11" fill="#161b22" rx="2" class="rect" style="animation-delay: 0.8099999999999999s" />
<rect x="330" y="0" width="11" height="11" fill="#161b22" rx="2" class="rect" style="animation-delay: 0.6599999999999999s" />
<rect x="330" y="15" width="11" height="11" fill="#0e4429" rx="2" class="rect" style="animation-delay: 0.69s" />
<rect x="330" y="30" width="11" height="11" fill="#39d353" rx="2" class="rect" style="animation-delay: 0.72s" />
<rect x="330" y="45" width="11" height="11" fill="#0e4429" rx="2" class="rect" style="animation-delay: 0.75s" />
<rect x="330" y="60" width="11" height="11" fill="#0e4429" rx="2" class="rect" style="animation-delay: 0.78s" />
<rect x="330" y="75" width="11" height="11" fill="#161b22" rx="2" class="rect" style="animation-delay: 0.8099999999999999s" />
<rect x="330" y="90" width="11" height="11" fill="#161b22" rx="2" class="rect" style="animation-delay: 0.84s" />
<rect x="345" y="0" width="11" height="11" fill="#161b22" rx="2" class="rect" style="animation-delay: 0.69s" />
<rect x="345" y="15" width="11" height="11" fill="#161b22" rx="2" class="rect" style="animation-delay: 0.72s" />
<rect x="345" y="30" width="11" height="11" fill="#161b22" rx="2" class="rect" style="animation-delay: 0.75s" />
<rect x="345" y="45" width="11" height="11" fill="#161b22" rx="2" class="rect" style="animation-delay: 0.78s" />
<rect x="345" y="60" width="11" height="11" fill="#161b22" rx="2" class="rect" style="animation-delay: 0.8099999999999999s" />
<rect x="345" y="75" width="11" height="11" fill="#161b22" rx="2" class="rect" style="animation-delay: 0.84s" />
<rect x="345" y="90" width="11" height="11" fill="#161b22" rx="2" class="rect" style="animation-delay: 0.87s" />
<rect x="360" y="0" width="11" height="11" fill="#161b22" rx="2" class="rect" style="animation-delay: 0.72s" />
<rect x="360" y="15" width="11" height="11" fill="#161b22" rx="2" class="rect" style="animation-delay: 0.75s" />
<rect x="360" y="30" width="11" height="11" fill="#161b22" rx="2" class="rect" style="animation-delay: 0.78s" />
<rect x="360" y="45" width="11" height="11" fill="#161b22" rx="2" class="rect" style="animation-delay: 0.8099999999999999s" />
<rect x="360" y="60" width="11" height="11" fill="#161b22" rx="2" class="rect" style="animation-delay: 0.84s" />
<rect x="360" y="75" width="11" height="11" fill="#161b22" rx="2" class="rect" style="animation-delay: 0.87s" />
<rect x="360" y="90" width="11" height="11" fill="#161b22" rx="2" class="rect" style="animation-delay: 0.8999999999999999s" />
<rect x="375" y="0" width="11" height="11" fill="#161b22" rx="2" class="rect" style="animation-delay: 0.75s" />
<rect x="375" y="15" width="11" height="11" fill="#161b22" rx="2" class="rect" style="animation-delay: 0.78s" />
<rect x="375" y="30" width="11" height="11" fill="#161b22" rx="2" class="rect" style="animation-delay: 0.8099999999999999s" />
<rect x="375" y="45" width="11" height="11" fill="#161b22" rx="2" class="rect" style="animation-delay: 0.84s" />
<rect x="375" y="60" width="11" height="11" fill="#161b22" rx="2" class="rect" style="animation-delay: 0.87s" />
<rect x="375" y="75" width="11" height="11" fill="#161b22" rx="2" class="rect" style="animation-delay: 0.8999999999999999s" />
<rect x="375" y="90" width="11" height="11" fill="#161b22" rx="2" class="rect" style="animation-delay: 0.9299999999999999s" />
<rect x="390" y="0" width="11" height="11" fill="#161b22" rx="2" class="rect" style="animation-delay: 0.78s" />
<rect x="390" y="15" width="11" height="11" fill="#161b22" rx="2" class="rect" style="animation-delay: 0.8099999999999999s" />
<rect x="390" y="30" width="11" height="11" fill="#161b22" rx="2" class="rect" style="animation-delay: 0.84s" />
<rect x="390" y="45" width="11" height="11" fill="#161b22" rx="2" class="rect" style="animation-delay: 0.87s" />
<rect x="390" y="60" width="11" height="11" fill="#161b22" rx="2" class="rect" style="animation-delay: 0.8999999999999999s" />
<rect x="390" y="75" width="11" height="11" fill="#161b22" rx="2" class="rect" style="animation-delay: 0.9299999999999999s" />
<rect x="390" y="90" width="11" height="11" fill="#161b22" rx="2" class="rect" style="animation-delay: 0.96s" />
<rect x="405" y="0" width="11" height="11" fill="#161b22" rx="2" class="rect" style="animation-delay: 0.8099999999999999s" />
<rect x="405" y="15" width="11" height="11" fill="#161b22" rx="2" class="rect" style="animation-delay: 0.84s" />
<rect x="405" y="30" width="11" height="11" fill="#161b22" rx="2" class="rect" style="animation-delay: 0.87s" />
<rect x="405" y="45" width="11" height="11" fill="#161b22" rx="2" class="rect" style="animation-delay: 0.8999999999999999s" />
<rect x="405" y="60" width="11" height="11" fill="#161b22" rx="2" class="rect" style="animation-delay: 0.9299999999999999s" />
<rect x="405" y="75" width="11" height="11" fill="#161b22" rx="2" class="rect" style="animation-delay: 0.96s" />
<rect x="405" y="90" width="11" height="11" fill="#39d353" rx="2" class="rect" style="animation-delay: 0.99s" />
<rect x="420" y="0" width="11" height="11" fill="#161b22" rx="2" class="rect" style="animation-delay: 0.84s" />
<rect x="420" y="15" width="11" height="11" fill="#161b22" rx="2" class="rect" style="animation-delay: 0.87s" />
<rect x="420" y="30" width="11" height="11" fill="#006d32" rx="2" class="rect" style="animation-delay: 0.8999999999999999s" />
<rect x="420" y="45" width="11" height="11" fill="#161b22" rx="2" class="rect" style="animation-delay: 0.9299999999999999s" />
<rect x="420" y="60" width="11" height="11" fill="#161b22" rx="2" class="rect" style="animation-delay: 0.96s" />
<rect x="420" y="75" width="11" height="11" fill="#39d353" rx="2" class="rect" style="animation-delay: 0.99s" />
<rect x="420" y="90" width="11" height="11" fill="#161b22" rx="2" class="rect" style="animation-delay: 1.02s" />
<rect x="435" y="0" width="11" height="11" fill="#0e4429" rx="2" class="rect" style="animation-delay: 0.87s" />
<rect x="435" y="15" width="11" height="11" fill="#161b22" rx="2" class="rect" style="animation-delay: 0.8999999999999999s" />
<rect x="435" y="30" width="11" height="11" fill="#161b22" rx="2" class="rect" style="animation-delay: 0.9299999999999999s" />
<rect x="435" y="45" width="11" height="11" fill="#006d32" rx="2" class="rect" style="animation-delay: 0.96s" />
<rect x="435" y="60" width="11" height="11" fill="#0e4429" rx="2" class="rect" style="animation-delay: 0.99s" />
<rect x="435" y="75" width="11" height="11" fill="#006d32" rx="2" class="rect" style="animation-delay: 1.02s" />
<rect x="435" y="90" width="11" height="11" fill="#0e4429" rx="2" class="rect" style="animation-delay: 1.05s" />
<rect x="450" y="0" width="11" height="11" fill="#0e4429" rx="2" class="rect" style="animation-delay: 0.8999999999999999s" />
<rect x="450" y="15" width="11" height="11" fill="#161b22" rx="2" class="rect" style="animation-delay: 0.9299999999999999s" />
<rect x="450" y="30" width="11" height="11" fill="#161b22" rx="2" class="rect" style="animation-delay: 0.96s" />
<rect x="450" y="45" width="11" height="11" fill="#161b22" rx="2" class="rect" style="animation-delay: 0.99s" />
<rect x="450" y="60" width="11" height="11" fill="#161b22" rx="2" class="rect" style="animation-delay: 1.02s" />
<rect x="450" y="75" width="11" height="11" fill="#161b22" rx="2" class="rect" style="animation-delay: 1.05s" />
<rect x="450" y="90" width="11" height="11" fill="#161b22" rx="2" class="rect" style="animation-delay: 1.08s" />
<rect x="465" y="0" width="11" height="11" fill="#161b22" rx="2" class="rect" style="animation-delay: 0.9299999999999999s" />
<rect x="465" y="15" width="11" height="11" fill="#161b22" rx="2" class="rect" style="animation-delay: 0.96s" />
<rect x="465" y="30" width="11" height="11" fill="#161b22" rx="2" class="rect" style="animation-delay: 0.99s" />
<rect x="465" y="45" width="11" height="11" fill="#161b22" rx="2" class="rect" style="animation-delay: 1.02s" />
<rect x="465" y="60" width="11" height="11" fill="#161b22" rx="2" class="rect" style="animation-delay: 1.05s" />
<rect x="465" y="75" width="11" height="11" fill="#161b22" rx="2" class="rect" style="animation-delay: 1.08s" />
<rect x="465" y="90" width="11" height="11" fill="#161b22" rx="2" class="rect" style="animation-delay: 1.1099999999999999s" />
<rect x="480" y="0" width="11" height="11" fill="#161b22" rx="2" class="rect" style="animation-delay: 0.96s" />
<rect x="480" y="15" width="11" height="11" fill="#161b22" rx="2" class="rect" style="animation-delay: 0.99s" />
<rect x="480" y="30" width="11" height="11" fill="#161b22" rx="2" class="rect" style="animation-delay: 1.02s" />
<rect x="480" y="45" width="11" height="11" fill="#161b22" rx="2" class="rect" style="animation-delay: 1.05s" />
<rect x="480" y="60" width="11" height="11" fill="#161b22" rx="2" class="rect" style="animation-delay: 1.08s" />
<rect x="480" y="75" width="11" height="11" fill="#161b22" rx="2" class="rect" style="animation-delay: 1.1099999999999999s" />
<rect x="480" y="90" width="11" height="11" fill="#161b22" rx="2" class="rect" style="animation-delay: 1.14s" />
<rect x="495" y="0" width="11" height="11" fill="#161b22" rx="2" class="rect" style="animation-delay: 0.99s" />
<rect x="495" y="15" width="11" height="11" fill="#161b22" rx="2" class="rect" style="animation-delay: 1.02s" />
<rect x="495" y="30" width="11" height="11" fill="#161b22" rx="2" class="rect" style="animation-delay: 1.05s" />
<rect x="495" y="45" width="11" height="11" fill="#161b22" rx="2" class="rect" style="animation-delay: 1.08s" />
<rect x="495" y="60" width="11" height="11" fill="#161b22" rx="2" class="rect" style="animation-delay: 1.1099999999999999s" />
<rect x="495" y="75" width="11" height="11" fill="#161b22" rx="2" class="rect" style="animation-delay: 1.14s" />
<rect x="495" y="90" width="11" height="11" fill="#161b22" rx="2" class="rect" style="animation-delay: 1.17s" />
<rect x="510" y="0" width="11" height="11" fill="#161b22" rx="2" class="rect" style="animation-delay: 1.02s" />
<rect x="510" y="15" width="11" height="11" fill="#161b22" rx="2" class="rect" style="animation-delay: 1.05s" />
<rect x="510" y="30" width="11" height="11" fill="#161b22" rx="2" class="rect" style="animation-delay: 1.08s" />
<rect x="510" y="45" width="11" height="11" fill="#161b22" rx="2" class="rect" style="animation-delay: 1.1099999999999999s" />
<rect x="510" y="60" width="11" height="11" fill="#161b22" rx="2" class="rect" style="animation-delay: 1.14s" />
<rect x="510" y="75" width="11" height="11" fill="#161b22" rx="2" class="rect" style="animation-delay: 1.17s" />
<rect x="510" y="90" width="11" height="11" fill="#161b22" rx="2" class="rect" style="animation-delay: 1.2s" />
<rect x="525" y="0" width="11" height="11" fill="#161b22" rx="2" class="rect" style="animation-delay: 1.05s" />
<rect x="525" y="15" width="11" height="11" fill="#161b22" rx="2" class="rect" style="animation-delay: 1.08s" />
<rect x="525" y="30" width="11" height="11" fill="#161b22" rx="2" class="rect" style="animation-delay: 1.1099999999999999s" />
<rect x="525" y="45" width="11" height="11" fill="#006d32" rx="2" class="rect" style="animation-delay: 1.14s" />
<rect x="525" y="60" width="11" height="11" fill="#161b22" rx="2" class="rect" style="animation-delay: 1.17s" />
<rect x="525" y="75" width="11" height="11" fill="#161b22" rx="2" class="rect" style="animation-delay: 1.2s" />
<rect x="525" y="90" width="11" height="11" fill="#006d32" rx="2" class="rect" style="animation-delay: 1.23s" />
<rect x="540" y="0" width="11" height="11" fill="#0e4429" rx="2" class="rect" style="animation-delay: 1.08s" />
<rect x="540" y="15" width="11" height="11" fill="#161b22" rx="2" class="rect" style="animation-delay: 1.1099999999999999s" />
<rect x="540" y="30" width="11" height="11" fill="#006d32" rx="2" class="rect" style="animation-delay: 1.14s" />
<rect x="540" y="45" width="11" height="11" fill="#161b22" rx="2" class="rect" style="animation-delay: 1.17s" />
<rect x="540" y="60" width="11" height="11" fill="#161b22" rx="2" class="rect" style="animation-delay: 1.2s" />
<rect x="540" y="75" width="11" height="11" fill="#161b22" rx="2" class="rect" style="animation-delay: 1.23s" />
<rect x="540" y="90" width="11" height="11" fill="#161b22" rx="2" class="rect" style="animation-delay: 1.26s" />
<rect x="555" y="0" width="11" height="11" fill="#161b22" rx="2" class="rect" style="animation-delay: 1.1099999999999999s" />
<rect x="555" y="15" width="11" height="11" fill="#161b22" rx="2" class="rect" style="animation-delay: 1.14s" />
<rect x="555" y="30" width="11" height="11" fill="#0e4429" rx="2" class="rect" style="animation-delay: 1.17s" />
<rect x="555" y="45" width="11" height="11" fill="#0e4429" rx="2" class="rect" style="animation-delay: 1.2s" />
<rect x="555" y="60" width="11" height="11" fill="#0e4429" rx="2" class="rect" style="animation-delay: 1.23s" />
<rect x="555" y="75" width="11" height="11" fill="#161b22" rx="2" class="rect" style="animation-delay: 1.26s" />
<rect x="555" y="90" width="11" height="11" fill="#161b22" rx="2" class="rect" style="animation-delay: 1.29s" />
<rect x="570" y="0" width="11" height="11" fill="#161b22" rx="2" class="rect" style="animation-delay: 1.14s" />
<rect x="570" y="15" width="11" height="11" fill="#161b22" rx="2" class="rect" style="animation-delay: 1.17s" />
<rect x="570" y="30" width="11" height="11" fill="#161b22" rx="2" class="rect" style="animation-delay: 1.2s" />
<rect x="570" y="45" width="11" height="11" fill="#0e4429" rx="2" class="rect" style="animation-delay: 1.23s" />
<rect x="570" y="60" width="11" height="11" fill="#161b22" rx="2" class="rect" style="animation-delay: 1.26s" />
<rect x="570" y="75" width="11" height="11" fill="#161b22" rx="2" class="rect" style="animation-delay: 1.29s" />
<rect x="570" y="90" width="11" height="11" fill="#161b22" rx="2" class="rect" style="animation-delay: 1.3199999999999998s" />
<rect x="585" y="0" width="11" height="11" fill="#161b22" rx="2" class="rect" style="animation-delay: 1.17s" />
<rect x="585" y="15" width="11" height="11" fill="#161b22" rx="2" class="rect" style="animation-delay: 1.2s" />
<rect x="585" y="30" width="11" height="11" fill="#161b22" rx="2" class="rect" style="animation-delay: 1.23s" />
<rect x="585" y="45" width="11" height="11" fill="#161b22" rx="2" class="rect" style="animation-delay: 1.26s" />
<rect x="585" y="60" width="11" height="11" fill="#161b22" rx="2" class="rect" style="animation-delay: 1.29s" />
<rect x="585" y="75" width="11" height="11" fill="#161b22" rx="2" class="rect" style="animation-delay: 1.3199999999999998s" />
<rect x="585" y="90" width="11" height="11" fill="#161b22" rx="2" class="rect" style="animation-delay: 1.3499999999999999s" />
<rect x="600" y="0" width="11" height="11" fill="#161b22" rx="2" class="rect" style="animation-delay: 1.2s" />
<rect x="600" y="15" width="11" height="11" fill="#161b22" rx="2" class="rect" style="animation-delay: 1.23s" />
<rect x="600" y="30" width="11" height="11" fill="#161b22" rx="2" class="rect" style="animation-delay: 1.26s" />
<rect x="600" y="45" width="11" height="11" fill="#161b22" rx="2" class="rect" style="animation-delay: 1.29s" />
<rect x="600" y="60" width="11" height="11" fill="#161b22" rx="2" class="rect" style="animation-delay: 1.3199999999999998s" />
<rect x="600" y="75" width="11" height="11" fill="#161b22" rx="2" class="rect" style="animation-delay: 1.3499999999999999s" />
<rect x="600" y="90" width="11" height="11" fill="#161b22" rx="2" class="rect" style="animation-delay: 1.38s" />
<rect x="615" y="0" width="11" height="11" fill="#161b22" rx="2" class="rect" style="animation-delay: 1.23s" />
<rect x="615" y="15" width="11" height="11" fill="#161b22" rx="2" class="rect" style="animation-delay: 1.26s" />
<rect x="615" y="30" width="11" height="11" fill="#161b22" rx="2" class="rect" style="animation-delay: 1.29s" />
<rect x="615" y="45" width="11" height="11" fill="#161b22" rx="2" class="rect" style="animation-delay: 1.3199999999999998s" />
<rect x="615" y="60" width="11" height="11" fill="#161b22" rx="2" class="rect" style="animation-delay: 1.3499999999999999s" />
<rect x="615" y="75" width="11" height="11" fill="#161b22" rx="2" class="rect" style="animation-delay: 1.38s" />
<rect x="615" y="90" width="11" height="11" fill="#161b22" rx="2" class="rect" style="animation-delay: 1.41s" />
<rect x="630" y="0" width="11" height="11" fill="#161b22" rx="2" class="rect" style="animation-delay: 1.26s" />
<rect x="630" y="15" width="11" height="11" fill="#161b22" rx="2" class="rect" style="animation-delay: 1.29s" />
<rect x="630" y="30" width="11" height="11" fill="#161b22" rx="2" class="rect" style="animation-delay: 1.3199999999999998s" />
<rect x="630" y="45" width="11" height="11" fill="#161b22" rx="2" class="rect" style="animation-delay: 1.3499999999999999s" />
<rect x="630" y="60" width="11" height="11" fill="#161b22" rx="2" class="rect" style="animation-delay: 1.38s" />
<rect x="630" y="75" width="11" height="11" fill="#161b22" rx="2" class="rect" style="animation-delay: 1.41s" />
<rect x="630" y="90" width="11" height="11" fill="#0e4429" rx="2" class="rect" style="animation-delay: 1.44s" />
<rect x="645" y="0" width="11" height="11" fill="#161b22" rx="2" class="rect" style="animation-delay: 1.29s" />
<rect x="645" y="15" width="11" height="11" fill="#161b22" rx="2" class="rect" style="animation-delay: 1.3199999999999998s" />
<rect x="645" y="30" width="11" height="11" fill="#161b22" rx="2" class="rect" style="animation-delay: 1.3499999999999999s" />
<rect x="645" y="45" width="11" height="11" fill="#161b22" rx="2" class="rect" style="animation-delay: 1.38s" />
<rect x="645" y="60" width="11" height="11" fill="#161b22" rx="2" class="rect" style="animation-delay: 1.41s" />
<rect x="645" y="75" width="11" height="11" fill="#161b22" rx="2" class="rect" style="animation-delay: 1.44s" />
<rect x="645" y="90" width="11" height="11" fill="#161b22" rx="2" class="rect" style="animation-delay: 1.47s" />
<rect x="660" y="0" width="11" height="11" fill="#161b22" rx="2" class="rect" style="animation-delay: 1.3199999999999998s" />
<rect x="660" y="15" width="11" height="11" fill="#161b22" rx="2" class="rect" style="animation-delay: 1.3499999999999999s" />
<rect x="660" y="30" width="11" height="11" fill="#161b22" rx="2" class="rect" style="animation-delay: 1.38s" />
<rect x="660" y="45" width="11" height="11" fill="#006d32" rx="2" class="rect" style="animation-delay: 1.41s" />
<rect x="660" y="60" width="11" height="11" fill="#161b22" rx="2" class="rect" style="animation-delay: 1.44s" />
<rect x="660" y="75" width="11" height="11" fill="#0e4429" rx="2" class="rect" style="animation-delay: 1.47s" />
<rect x="660" y="90" width="11" height="11" fill="#0e4429" rx="2" class="rect" style="animation-delay: 1.5s" />
<rect x="675" y="0" width="11" height="11" fill="#0e4429" rx="2" class="rect" style="animation-delay: 1.3499999999999999s" />
<rect x="675" y="15" width="11" height="11" fill="#161b22" rx="2" class="rect" style="animation-delay: 1.38s" />
<rect x="675" y="30" width="11" height="11" fill="#161b22" rx="2" class="rect" style="animation-delay: 1.41s" />
<rect x="675" y="45" width="11" height="11" fill="#161b22" rx="2" class="rect" style="animation-delay: 1.44s" />
<rect x="675" y="60" width="11" height="11" fill="#161b22" rx="2" class="rect" style="animation-delay: 1.47s" />
<rect x="675" y="75" width="11" height="11" fill="#161b22" rx="2" class="rect" style="animation-delay: 1.5s" />
<rect x="675" y="90" width="11" height="11" fill="#161b22" rx="2" class="rect" style="animation-delay: 1.53s" />
<rect x="690" y="0" width="11" height="11" fill="#161b22" rx="2" class="rect" style="animation-delay: 1.38s" />
<rect x="690" y="15" width="11" height="11" fill="#161b22" rx="2" class="rect" style="animation-delay: 1.41s" />
<rect x="690" y="30" width="11" height="11" fill="#161b22" rx="2" class="rect" style="animation-delay: 1.44s" />
<rect x="690" y="45" width="11" height="11" fill="#161b22" rx="2" class="rect" style="animation-delay: 1.47s" />
<rect x="690" y="60" width="11" height="11" fill="#161b22" rx="2" class="rect" style="animation-delay: 1.5s" />
<rect x="690" y="75" width="11" height="11" fill="#161b22" rx="2" class="rect" style="animation-delay: 1.53s" />
<rect x="690" y="90" width="11" height="11" fill="#161b22" rx="2" class="rect" style="animation-delay: 1.56s" />
<rect x="705" y="0" width="11" height="11" fill="#161b22" rx="2" class="rect" style="animation-delay: 1.41s" />
<rect x="705" y="15" width="11" height="11" fill="#161b22" rx="2" class="rect" style="animation-delay: 1.44s" />
<rect x="705" y="30" width="11" height="11" fill="#161b22" rx="2" class="rect" style="animation-delay: 1.47s" />
<rect x="705" y="45" width="11" height="11" fill="#161b22" rx="2" class="rect" style="animation-delay: 1.5s" />
<rect x="705" y="60" width="11" height="11" fill="#161b22" rx="2" class="rect" style="animation-delay: 1.53s" />
<rect x="705" y="75" width="11" height="11" fill="#161b22" rx="2" class="rect" style="animation-delay: 1.56s" />
<rect x="705" y="90" width="11" height="11" fill="#161b22" rx="2" class="rect" style="animation-delay: 1.5899999999999999s" />
<rect x="720" y="0" width="11" height="11" fill="#161b22" rx="2" class="rect" style="animation-delay: 1.44s" />
<rect x="720" y="15" width="11" height="11" fill="#161b22" rx="2" class="rect" style="animation-delay: 1.47s" />
<rect x="720" y="30" width="11" height="11" fill="#161b22" rx="2" class="rect" style="animation-delay: 1.5s" />
<rect x="720" y="45" width="11" height="11" fill="#161b22" rx="2" class="rect" style="animation-delay: 1.53s" />
<rect x="720" y="60" width="11" height="11" fill="#161b22" rx="2" class="rect" style="animation-delay: 1.56s" />
<rect x="720" y="75" width="11" height="11" fill="#161b22" rx="2" class="rect" style="animation-delay: 1.5899999999999999s" />
<rect x="720" y="90" width="11" height="11" fill="#161b22" rx="2" class="rect" style="animation-delay: 1.6199999999999999s" />
<rect x="735" y="0" width="11" height="11" fill="#161b22" rx="2" class="rect" style="animation-delay: 1.47s" />
<rect x="735" y="15" width="11" height="11" fill="#161b22" rx="2" class="rect" style="animation-delay: 1.5s" />
<rect x="735" y="30" width="11" height="11" fill="#161b22" rx="2" class="rect" style="animation-delay: 1.53s" />
<rect x="735" y="45" width="11" height="11" fill="#161b22" rx="2" class="rect" style="animation-delay: 1.56s" />
<rect x="735" y="60" width="11" height="11" fill="#161b22" rx="2" class="rect" style="animation-delay: 1.5899999999999999s" />
<rect x="735" y="75" width="11" height="11" fill="#161b22" rx="2" class="rect" style="animation-delay: 1.6199999999999999s" />
<rect x="735" y="90" width="11" height="11" fill="#161b22" rx="2" class="rect" style="animation-delay: 1.65s" />
<rect x="750" y="0" width="11" height="11" fill="#161b22" rx="2" class="rect" style="animation-delay: 1.5s" />
<rect x="750" y="15" width="11" height="11" fill="#161b22" rx="2" class="rect" style="animation-delay: 1.53s" />
<rect x="750" y="30" width="11" height="11" fill="#161b22" rx="2" class="rect" style="animation-delay: 1.56s" />
<rect x="750" y="45" width="11" height="11" fill="#161b22" rx="2" class="rect" style="animation-delay: 1.5899999999999999s" />
<rect x="750" y="60" width="11" height="11" fill="#161b22" rx="2" class="rect" style="animation-delay: 1.6199999999999999s" />
<rect x="750" y="75" width="11" height="11" fill="#161b22" rx="2" class="rect" style="animation-delay: 1.65s" />
<rect x="750" y="90" width="11" height="11" fill="#161b22" rx="2" class="rect" style="animation-delay: 1.68s" />
<rect x="765" y="0" width="11" height="11" fill="#161b22" rx="2" class="rect" style="animation-delay: 1.53s" />
<rect x="765" y="15" width="11" height="11" fill="#161b22" rx="2" class="rect" style="animation-delay: 1.56s" />
<rect x="765" y="30" width="11" height="11" fill="#161b22" rx="2" class="rect" style="animation-delay: 1.5899999999999999s" />
<rect x="765" y="45" width="11" height="11" fill="#006d32" rx="2" class="rect" style="animation-delay: 1.6199999999999999s" />
<rect x="765" y="60" width="11" height="11" fill="#161b22" rx="2" class="rect" style="animation-delay: 1.65s" />
<rect x="765" y="75" width="11" height="11" fill="#161b22" rx="2" class="rect" style="animation-delay: 1.68s" />
<rect x="765" y="90" width="11" height="11" fill="#161b22" rx="2" class="rect" style="animation-delay: 1.71s" />
<rect x="780" y="0" width="11" height="11" fill="#161b22" rx="2" class="rect" style="animation-delay: 1.56s" />
<rect x="780" y="15" width="11" height="11" fill="#0e4429" rx="2" class="rect" style="animation-delay: 1.5899999999999999s" />
<rect x="780" y="30" width="11" height="11" fill="#0e4429" rx="2" class="rect" style="animation-delay: 1.6199999999999999s" />
<rect x="780" y="45" width="11" height="11" fill="#0e4429" rx="2" class="rect" style="animation-delay: 1.65s" />

  </g>
  <text x="20" y="180" fill="#c9d1d9" font-family="monospace" font-size="14">186 contributions in the last year</text>
</svg>